<?xml version="1.0" encoding="UTF-8" standalone="no"?> <svg width="64" height="64" viewBox="0 0 64 64" fill="none" xmlns="http://www.w3.org/2000/svg">
<path d="M38.5 25.1C38.2 24.9 37.7 25 37.5 25.2C35 27 32 28 29 28H25C22.8 28 21 29.8 21 32C21 34.2 22.8 36 25 36H25.3L25.8 39.4C26 40.9 27.3 42 28.7 42C29.6 42 30.4 41.6 31 41C31.6 40.4 31.8 39.5 31.7 38.6L31.4 36.2C33.6 36.6 35.7 37.5 37.5 38.8C37.7 38.9 37.9 39 38.1 39C38.3 39 38.4 39 38.6 38.9C38.9 38.7 39.1 38.4 39.1 38V26C39 25.6 38.8 25.3 38.5 25.1ZM29.5 39.7C29.3 39.9 29 40 28.7 40C28.2 40 27.8 39.6 27.7 39.2L27.3 36H29C29.1 36 29.2 36 29.3 36L29.7 38.9C29.7 39.2 29.7 39.4 29.5 39.7ZM37 36.1C34.6 34.7 31.8 34 29 34V30C31.8 30 34.6 29.2 37 27.8V36.1Z" fill="black"/>
<path d="M46 32C46 32.5 45.5 33 45 33H42C41.5 33 41 32.5 41 32C41 31.5 41.5 31 42 31H45C45.5 31 46 31.5 46 32Z" fill="black"/>
<path d="M44.5 27.9L42.5 28.9C42.3 29 42.2 29 42 29C41.6 29 41.3 28.8 41.1 28.5C40.8 28 41.1 27.4 41.5 27.2L43.5 26.2C44 25.9 44.6 26.2 44.8 26.6C45.1 27 44.9 27.6 44.5 27.9Z" fill="black"/>
<path d="M44.9 37.5C44.7 37.8 44.4 38 44 38C43.8 38 43.7 38 43.5 37.9L41.5 36.9C41 36.7 40.8 36.1 41.1 35.6C41.3 35.1 41.9 34.9 42.4 35.2L44.4 36.2C44.9 36.3 45.1 37 44.9 37.5Z" fill="black"/>
<path d="M51 11H52V12C52 13.7 53.3 15 55 15C55.6 15 56 14.6 56 14C56 13.4 55.6 13 55 13C54.4 13 54 12.6 54 12V11H55C55.6 11 56 10.6 56 10C56 9.4 55.6 9 55 9H54V8C54 7.4 53.6 7 53 7C52.4 7 52 7.4 52 8V9H51C50.4 9 50 9.4 50 10C50 10.6 50.4 11 51 11Z" fill="black"/>
<path d="M38.5 25.1C38.2 24.9 37.7 25 37.5 25.2C35 27 32 28 29 28H25C22.8 28 21 29.8 21 32C21 34.2 22.8 36 25 36H25.3L25.8 39.4C26 40.9 27.3 42 28.7 42C29.6 42 30.4 41.6 31 41C31.6 40.4 31.8 39.5 31.7 38.6L31.4 36.2C33.6 36.6 35.7 37.5 37.5 38.8C37.7 38.9 37.9 39 38.1 39C38.3 39 38.4 39 38.6 38.9C38.9 38.7 39.1 38.4 39.1 38V26C39 25.6 38.8 25.3 38.5 25.1ZM29.5 39.7C29.3 39.9 29 40 28.7 40C28.2 40 27.8 39.6 27.7 39.2L27.3 36H29C29.1 36 29.2 36 29.3 36L29.7 38.9C29.7 39.2 29.7 39.4 29.5 39.7ZM37 36.1C34.6 34.7 31.8 34 29 34V30C31.8 30 34.6 29.2 37 27.8V36.1ZM44.5 36.1L42.5 35.1C42 34.8 41.4 35.1 41.2 35.5C40.9 36 41.2 36.6 41.6 36.8L43.6 37.8C43.7 38 43.8 38 44 38C44.4 38 44.7 37.8 44.9 37.5C45.1 37 44.9 36.3 44.5 36.1ZM44.9 26.5C44.7 26 44.1 25.8 43.6 26.1L41.6 27.1C41.1 27.3 40.9 27.9 41.2 28.4C41.4 28.7 41.7 28.9 42.1 28.9C42.3 28.9 42.4 28.9 42.6 28.8L44.6 27.8C44.9 27.6 45.1 27 44.9 26.5ZM45 31H42C41.5 31 41 31.5 41 32C41 32.5 41.5 33 42 33H45C45.5 33 46 32.5 46 32C46 31.5 45.5 31 45 31ZM45 31H42C41.5 31 41 31.5 41 32C41 32.5 41.5 33 42 33H45C45.5 33 46 32.5 46 32C46 31.5 45.5 31 45 31ZM44.9 26.5C44.7 26 44.1 25.8 43.6 26.1L41.6 27.1C41.1 27.3 40.9 27.9 41.2 28.4C41.4 28.7 41.7 28.9 42.1 28.9C42.3 28.9 42.4 28.9 42.6 28.8L44.6 27.8C44.9 27.6 45.1 27 44.9 26.5ZM44.5 36.1L42.5 35.1C42 34.8 41.4 35.1 41.2 35.5C40.9 36 41.2 36.6 41.6 36.8L43.6 37.8C43.7 38 43.8 38 44 38C44.4 38 44.7 37.8 44.9 37.5C45.1 37 44.9 36.3 44.5 36.1ZM38.5 25.1C38.2 24.9 37.7 25 37.5 25.2C35 27 32 28 29 28H25C22.8 28 21 29.8 21 32C21 34.2 22.8 36 25 36H25.3L25.8 39.4C26 40.9 27.3 42 28.7 42C29.6 42 30.4 41.6 31 41C31.6 40.4 31.8 39.5 31.7 38.6L31.4 36.2C33.6 36.6 35.7 37.5 37.5 38.8C37.7 38.9 37.9 39 38.1 39C38.3 39 38.4 39 38.6 38.9C38.9 38.7 39.1 38.4 39.1 38V26C39 25.6 38.8 25.3 38.5 25.1ZM29.5 39.7C29.3 39.9 29 40 28.7 40C28.2 40 27.8 39.6 27.7 39.2L27.3 36H29C29.1 36 29.2 36 29.3 36L29.7 38.9C29.7 39.2 29.7 39.4 29.5 39.7ZM37 36.1C34.6 34.7 31.8 34 29 34V30C31.8 30 34.6 29.2 37 27.8V36.1ZM38.5 25.1C38.2 24.9 37.7 25 37.5 25.2C35 27 32 28 29 28H25C22.8 28 21 29.8 21 32C21 34.2 22.8 36 25 36H25.3L25.8 39.4C26 40.9 27.3 42 28.7 42C29.6 42 30.4 41.6 31 41C31.6 40.4 31.8 39.5 31.7 38.6L31.4 36.2C33.6 36.6 35.7 37.5 37.5 38.8C37.7 38.9 37.9 39 38.1 39C38.3 39 38.4 39 38.6 38.9C38.9 38.7 39.1 38.4 39.1 38V26C39 25.6 38.8 25.3 38.5 25.1ZM29.5 39.7C29.3 39.9 29 40 28.7 40C28.2 40 27.8 39.6 27.7 39.2L27.3 36H29C29.1 36 29.2 36 29.3 36L29.7 38.9C29.7 39.2 29.7 39.4 29.5 39.7ZM37 36.1C34.6 34.7 31.8 34 29 34V30C31.8 30 34.6 29.2 37 27.8V36.1ZM44.5 36.1L42.5 35.1C42 34.8 41.4 35.1 41.2 35.5C40.9 36 41.2 36.6 41.6 36.8L43.6 37.8C43.7 38 43.8 38 44 38C44.4 38 44.7 37.8 44.9 37.5C45.1 37 44.9 36.3 44.5 36.1ZM44.9 26.5C44.7 26 44.1 25.8 43.6 26.1L41.6 27.1C41.1 27.3 40.9 27.9 41.2 28.4C41.4 28.7 41.7 28.9 42.1 28.9C42.3 28.9 42.4 28.9 42.6 28.8L44.6 27.8C44.9 27.6 45.1 27 44.9 26.5ZM45 31H42C41.5 31 41 31.5 41 32C41 32.5 41.5 33 42 33H45C45.5 33 46 32.5 46 32C46 31.5 45.5 31 45 31ZM45 31H42C41.5 31 41 31.5 41 32C41 32.5 41.5 33 42 33H45C45.5 33 46 32.5 46 32C46 31.5 45.5 31 45 31ZM44.9 26.5C44.7 26 44.1 25.8 43.6 26.1L41.6 27.1C41.1 27.3 40.9 27.9 41.2 28.4C41.4 28.7 41.7 28.9 42.1 28.9C42.3 28.9 42.4 28.9 42.6 28.8L44.6 27.8C44.9 27.6 45.1 27 44.9 26.5ZM44.5 36.1L42.5 35.1C42 34.8 41.4 35.1 41.2 35.5C40.9 36 41.2 36.6 41.6 36.8L43.6 37.8C43.7 38 43.8 38 44 38C44.4 38 44.7 37.8 44.9 37.5C45.1 37 44.9 36.3 44.5 36.1ZM38.5 25.1C38.2 24.9 37.7 25 37.5 25.2C35 27 32 28 29 28H25C22.8 28 21 29.8 21 32C21 34.2 22.8 36 25 36H25.3L25.8 39.4C26 40.9 27.3 42 28.7 42C29.6 42 30.4 41.6 31 41C31.6 40.4 31.8 39.5 31.7 38.6L31.4 36.2C33.6 36.6 35.7 37.5 37.5 38.8C37.7 38.9 37.9 39 38.1 39C38.3 39 38.4 39 38.6 38.9C38.9 38.7 39.1 38.4 39.1 38V26C39 25.6 38.8 25.3 38.5 25.1ZM29.5 39.7C29.3 39.9 29 40 28.7 40C28.2 40 27.8 39.6 27.7 39.2L27.3 36H29C29.1 36 29.2 36 29.3 36L29.7 38.9C29.7 39.2 29.7 39.4 29.5 39.7ZM37 36.1C34.6 34.7 31.8 34 29 34V30C31.8 30 34.6 29.2 37 27.8V36.1ZM21.7 7.8C19.9 4.4 16.2 2 12 2C5.9 2 1 6.9 1 13C1 17.5 3.7 21.4 7.6 23.1C7.7 23.1 7.7 23.1 7.7 23.2C9.1 23.7 10.5 24 12 24C18.1 24 23 19.1 23 13C23 11.2 22.6 9.4 21.7 7.8ZM12 22C7 22 3 18 3 13C3 8 7 4 12 4C17 4 21 8 21 13C21 18 17 22 12 22ZM38.5 25.1C38.2 24.9 37.7 25 37.5 25.2C35 27 32 28 29 28H25C22.8 28 21 29.8 21 32C21 34.2 22.8 36 25 36H25.3L25.8 39.4C26 40.9 27.3 42 28.7 42C29.6 42 30.4 41.6 31 41C31.6 40.4 31.8 39.5 31.7 38.6L31.4 36.2C33.6 36.6 35.7 37.5 37.5 38.8C37.7 38.9 37.9 39 38.1 39C38.3 39 38.4 39 38.6 38.9C38.9 38.7 39.1 38.4 39.1 38V26C39 25.6 38.8 25.3 38.5 25.1ZM29.5 39.7C29.3 39.9 29 40 28.7 40C28.2 40 27.8 39.6 27.7 39.2L27.3 36H29C29.1 36 29.2 36 29.3 36L29.7 38.9C29.7 39.2 29.7 39.4 29.5 39.7ZM37 36.1C34.6 34.7 31.8 34 29 34V30C31.8 30 34.6 29.2 37 27.8V36.1ZM44.5 36.1L42.5 35.1C42 34.8 41.4 35.1 41.2 35.5C40.9 36 41.2 36.6 41.6 36.8L43.6 37.8C43.7 38 43.8 38 44 38C44.4 38 44.7 37.8 44.9 37.5C45.1 37 44.9 36.3 44.5 36.1ZM44.9 26.5C44.7 26 44.1 25.8 43.6 26.1L41.6 27.1C41.1 27.3 40.9 27.9 41.2 28.4C41.4 28.7 41.7 28.9 42.1 28.9C42.3 28.9 42.4 28.9 42.6 28.8L44.6 27.8C44.9 27.6 45.1 27 44.9 26.5ZM45 31H42C41.5 31 41 31.5 41 32C41 32.5 41.5 33 42 33H45C45.5 33 46 32.5 46 32C46 31.5 45.5 31 45 31ZM38.5 25.1C38.2 24.9 37.7 25 37.5 25.2C35 27 32 28 29 28H25C22.8 28 21 29.8 21 32C21 34.2 22.8 36 25 36H25.3L25.8 39.4C26 40.9 27.3 42 28.7 42C29.6 42 30.4 41.6 31 41C31.6 40.4 31.8 39.5 31.7 38.6L31.4 36.2C33.6 36.6 35.7 37.5 37.5 38.8C37.7 38.9 37.9 39 38.1 39C38.3 39 38.4 39 38.6 38.9C38.9 38.7 39.1 38.4 39.1 38V26C39 25.6 38.8 25.3 38.5 25.1ZM29.5 39.7C29.3 39.9 29 40 28.7 40C28.2 40 27.8 39.6 27.7 39.2L27.3 36H29C29.1 36 29.2 36 29.3 36L29.7 38.9C29.7 39.2 29.7 39.4 29.5 39.7ZM37 36.1C34.6 34.7 31.8 34 29 34V30C31.8 30 34.6 29.2 37 27.8V36.1ZM43.9 46.8C41.1 48.8 37.7 50 34 50C24.6 50 17 42.4 17 33C17 29.3 18.2 25.8 20.2 23.1C18 24.9 15.1 26 12 26C10.3 26 8.7 25.7 7.2 25.1C6.4 27.6 6 30.3 6 33C6 36.1 6.5 39.1 7.5 42C7.7 42 7.8 42 8 42H16C19.3 42 22 44.7 22 48V56C22 56.7 21.9 57.4 21.6 58.1C25.5 60 29.7 61 34 61C37.4 61 40.8 60.4 43.9 59.2C42.7 57.4 42 55.2 42 53C42 50.7 42.7 48.5 43.9 46.8ZM19.8 57.1C20 56.7 20 56.4 20 56V48C20 45.8 18.2 44 16 44H8C7.7 44 7.5 44 7.3 44.1C7 44.1 6.8 44.2 6.8 44.2C5.1 44.7 4 46.2 4 48V56C4 58.2 5.8 60 8 60H16C17.8 60 19.3 58.8 19.8 57.1ZM18 56C18 57.1 17.1 58 16 58H8C6.9 58 6 57.1 6 56V48C6 46.9 6.9 46 8 46H16C17.1 46 18 46.9 18 48V56ZM44.5 36.1L42.5 35.1C42 34.8 41.4 35.1 41.2 35.5C40.9 36 41.2 36.6 41.6 36.8L43.6 37.8C43.7 38 43.8 38 44 38C44.4 38 44.7 37.8 44.9 37.5C45.1 37 44.9 36.3 44.5 36.1ZM44.9 26.5C44.7 26 44.1 25.8 43.6 26.1L41.6 27.1C41.1 27.3 40.9 27.9 41.2 28.4C41.4 28.7 41.7 28.9 42.1 28.9C42.3 28.9 42.4 28.9 42.6 28.8L44.6 27.8C44.9 27.6 45.1 27 44.9 26.5ZM45 31H42C41.5 31 41 31.5 41 32C41 32.5 41.5 33 42 33H45C45.5 33 46 32.5 46 32C46 31.5 45.5 31 45 31ZM58.9 46.2L58.8 46.1C57.1 44.7 55.1 44 53 44C48 44 44 48 44 53C44 55 44.6 56.8 45.8 58.4C47.4 60.6 50 62 53 62C58 62 62 58 62 53C62 50.3 60.8 47.8 58.9 46.2ZM53 60C49.1 60 46 56.9 46 53C46 49.1 49.1 46 53 46C56.9 46 60 49.1 60 53C60 56.9 56.9 60 53 60ZM59 20.3C58 20.8 57 21 56 21H50C46.1 21 43 17.9 43 14V8C43 7.5 43 7 43.2 6.5C40.3 5.5 37.2 5 34 5C30.4 5 26.8 5.7 23.5 7C24.5 8.8 25 10.9 25 13C25 15.7 24.2 18.2 22.8 20.2C25.8 17.6 29.7 16 34 16C43.4 16 51 23.6 51 33C51 37 49.6 40.7 47.2 43.6C48.9 42.6 50.8 42 53 42C55.4 42 57.7 42.8 59.6 44.2C61.2 40.7 62 36.9 62 33C62 28.6 61 24.2 59 20.3ZM45 31H42C41.5 31 41 31.5 41 32C41 32.5 41.5 33 42 33H45C45.5 33 46 32.5 46 32C46 31.5 45.5 31 45 31ZM42 29C42.2 29 42.3 29 42.5 28.9L44.5 27.9C45 27.7 45.2 27.1 44.9 26.6C44.7 26.1 44.1 25.9 43.6 26.2L41.6 27.2C41.1 27.4 40.9 28 41.2 28.5C41.3 28.8 41.6 29 42 29ZM44.5 36.1L42.5 35.1C42 34.8 41.4 35.1 41.2 35.5C40.9 36 41.2 36.6 41.6 36.8L43.6 37.8C43.7 38 43.8 38 44 38C44.4 38 44.7 37.8 44.9 37.5C45.1 37 44.9 36.3 44.5 36.1ZM38.5 25.1C38.2 24.9 37.7 25 37.5 25.2C35 27 32 28 29 28H25C22.8 28 21 29.8 21 32C21 34.2 22.8 36 25 36H25.3L25.8 39.4C26 40.9 27.3 42 28.7 42C29.6 42 30.4 41.6 31 41C31.6 40.4 31.8 39.5 31.7 38.6L31.4 36.2C33.6 36.6 35.7 37.5 37.5 38.8C37.7 38.9 37.9 39 38.1 39C38.3 39 38.4 39 38.6 38.9C38.9 38.7 39.1 38.4 39.1 38V26C39 25.6 38.8 25.3 38.5 25.1ZM29.5 39.7C29.3 39.9 29 40 28.7 40C28.2 40 27.8 39.6 27.7 39.2L27.3 36H29C29.1 36 29.2 36 29.3 36L29.7 38.9C29.7 39.2 29.7 39.4 29.5 39.7ZM37 36.1C34.6 34.7 31.8 34 29 34V30C31.8 30 34.6 29.2 37 27.8V36.1ZM58.1 18.5C59.8 17.7 61 16 61 14V8C61 5.2 58.8 3 56 3H50C47.5 3 45.4 4.9 45.1 7.3C45.1 7.5 45.1 7.8 45.1 8V14C45.1 16.8 47.3 19 50.1 19H56.1C56.8 19 57.5 18.9 58.1 18.6V18.5ZM59 14C59 15.6 57.7 17 56 17H50C48.3 17 47 15.6 47 14V8C47 6.3 48.3 5 50 5H56C57.7 5 59 6.3 59 8V14ZM45 31H42C41.5 31 41 31.5 41 32C41 32.5 41.5 33 42 33H45C45.5 33 46 32.5 46 32C46 31.5 45.5 31 45 31ZM44.9 26.5C44.7 26 44.1 25.8 43.6 26.1L41.6 27.1C41.1 27.3 40.9 27.9 41.2 28.4C41.4 28.7 41.7 28.9 42.1 28.9C42.3 28.9 42.4 28.9 42.6 28.8L44.6 27.8C44.9 27.6 45.1 27 44.9 26.5ZM44.5 36.1L42.5 35.1C42 34.8 41.4 35.1 41.2 35.5C40.9 36 41.2 36.6 41.6 36.8L43.6 37.8C43.7 38 43.8 38 44 38C44.4 38 44.7 37.8 44.9 37.5C45.1 37 44.9 36.3 44.5 36.1ZM38.5 25.1C38.2 24.9 37.7 25 37.5 25.2C35 27 32 28 29 28H25C22.8 28 21 29.8 21 32C21 34.2 22.8 36 25 36H25.3L25.8 39.4C26 40.9 27.3 42 28.7 42C29.6 42 30.4 41.6 31 41C31.6 40.4 31.8 39.5 31.7 38.6L31.4 36.2C33.6 36.6 35.7 37.5 37.5 38.8C37.7 38.9 37.9 39 38.1 39C38.3 39 38.4 39 38.6 38.9C38.9 38.7 39.1 38.4 39.1 38V26C39 25.6 38.8 25.3 38.5 25.1ZM29.5 39.7C29.3 39.9 29 40 28.7 40C28.2 40 27.8 39.6 27.7 39.2L27.3 36H29C29.1 36 29.2 36 29.3 36L29.7 38.9C29.7 39.2 29.7 39.4 29.5 39.7ZM37 36.1C34.6 34.7 31.8 34 29 34V30C31.8 30 34.6 29.2 37 27.8V36.1ZM38.5 25.1C38.2 24.9 37.7 25 37.5 25.2C35 27 32 28 29 28H25C22.8 28 21 29.8 21 32C21 34.2 22.8 36 25 36H25.3L25.8 39.4C26 40.9 27.3 42 28.7 42C29.6 42 30.4 41.6 31 41C31.6 40.4 31.8 39.5 31.7 38.6L31.4 36.2C33.6 36.6 35.7 37.5 37.5 38.8C37.7 38.9 37.9 39 38.1 39C38.3 39 38.4 39 38.6 38.9C38.9 38.7 39.1 38.4 39.1 38V26C39 25.6 38.8 25.3 38.5 25.1ZM29.5 39.7C29.3 39.9 29 40 28.7 40C28.2 40 27.8 39.6 27.7 39.2L27.3 36H29C29.1 36 29.2 36 29.3 36L29.7 38.9C29.7 39.2 29.7 39.4 29.5 39.7ZM37 36.1C34.6 34.7 31.8 34 29 34V30C31.8 30 34.6 29.2 37 27.8V36.1ZM44.5 36.1L42.5 35.1C42 34.8 41.4 35.1 41.2 35.5C40.9 36 41.2 36.6 41.6 36.8L43.6 37.8C43.7 38 43.8 38 44 38C44.4 38 44.7 37.8 44.9 37.5C45.1 37 44.9 36.3 44.5 36.1ZM44.9 26.5C44.7 26 44.1 25.8 43.6 26.1L41.6 27.1C41.1 27.3 40.9 27.9 41.2 28.4C41.4 28.7 41.7 28.9 42.1 28.9C42.3 28.9 42.4 28.9 42.6 28.8L44.6 27.8C44.9 27.6 45.1 27 44.9 26.5ZM45 31H42C41.5 31 41 31.5 41 32C41 32.5 41.5 33 42 33H45C45.5 33 46 32.5 46 32C46 31.5 45.5 31 45 31ZM45 31H42C41.5 31 41 31.5 41 32C41 32.5 41.5 33 42 33H45C45.5 33 46 32.5 46 32C46 31.5 45.5 31 45 31ZM44.9 26.5C44.7 26 44.1 25.8 43.6 26.1L41.6 27.1C41.1 27.3 40.9 27.9 41.2 28.4C41.4 28.7 41.7 28.9 42.1 28.9C42.3 28.9 42.4 28.9 42.6 28.8L44.6 27.8C44.9 27.6 45.1 27 44.9 26.5ZM44.5 36.1L42.5 35.1C42 34.8 41.4 35.1 41.2 35.5C40.9 36 41.2 36.6 41.6 36.8L43.6 37.8C43.7 38 43.8 38 44 38C44.4 38 44.7 37.8 44.9 37.5C45.1 37 44.9 36.3 44.5 36.1ZM38.5 25.1C38.2 24.9 37.7 25 37.5 25.2C35 27 32 28 29 28H25C22.8 28 21 29.8 21 32C21 34.2 22.8 36 25 36H25.3L25.8 39.4C26 40.9 27.3 42 28.7 42C29.6 42 30.4 41.6 31 41C31.6 40.4 31.8 39.5 31.7 38.6L31.4 36.2C33.6 36.6 35.7 37.5 37.5 38.8C37.7 38.9 37.9 39 38.1 39C38.3 39 38.4 39 38.6 38.9C38.9 38.7 39.1 38.4 39.1 38V26C39 25.6 38.8 25.3 38.5 25.1ZM29.5 39.7C29.3 39.9 29 40 28.7 40C28.2 40 27.8 39.6 27.7 39.2L27.3 36H29C29.1 36 29.2 36 29.3 36L29.7 38.9C29.7 39.2 29.7 39.4 29.5 39.7ZM37 36.1C34.6 34.7 31.8 34 29 34V30C31.8 30 34.6 29.2 37 27.8V36.1ZM38.5 25.1C38.2 24.9 37.7 25 37.5 25.2C35 27 32 28 29 28H25C22.8 28 21 29.8 21 32C21 34.2 22.8 36 25 36H25.3L25.8 39.4C26 40.9 27.3 42 28.7 42C29.6 42 30.4 41.6 31 41C31.6 40.4 31.8 39.5 31.7 38.6L31.4 36.2C33.6 36.6 35.7 37.5 37.5 38.8C37.7 38.9 37.9 39 38.1 39C38.3 39 38.4 39 38.6 38.9C38.9 38.7 39.1 38.4 39.1 38V26C39 25.6 38.8 25.3 38.5 25.1ZM29.5 39.7C29.3 39.9 29 40 28.7 40C28.2 40 27.8 39.6 27.7 39.2L27.3 36H29C29.1 36 29.2 36 29.3 36L29.7 38.9C29.7 39.2 29.7 39.4 29.5 39.7ZM37 36.1C34.6 34.7 31.8 34 29 34V30C31.8 30 34.6 29.2 37 27.8V36.1ZM44.5 36.1L42.5 35.1C42 34.8 41.4 35.1 41.2 35.5C40.9 36 41.2 36.6 41.6 36.8L43.6 37.8C43.7 38 43.8 38 44 38C44.4 38 44.7 37.8 44.9 37.5C45.1 37 44.9 36.3 44.5 36.1ZM44.9 26.5C44.7 26 44.1 25.8 43.6 26.1L41.6 27.1C41.1 27.3 40.9 27.9 41.2 28.4C41.4 28.7 41.7 28.9 42.1 28.9C42.3 28.9 42.4 28.9 42.6 28.8L44.6 27.8C44.9 27.6 45.1 27 44.9 26.5ZM45 31H42C41.5 31 41 31.5 41 32C41 32.5 41.5 33 42 33H45C45.5 33 46 32.5 46 32C46 31.5 45.5 31 45 31ZM45 31H42C41.5 31 41 31.5 41 32C41 32.5 41.5 33 42 33H45C45.5 33 46 32.5 46 32C46 31.5 45.5 31 45 31ZM44.9 26.5C44.7 26 44.1 25.8 43.6 26.1L41.6 27.1C41.1 27.3 40.9 27.9 41.2 28.4C41.4 28.7 41.7 28.9 42.1 28.9C42.3 28.9 42.4 28.9 42.6 28.8L44.6 27.8C44.9 27.6 45.1 27 44.9 26.5ZM44.5 36.1L42.5 35.1C42 34.8 41.4 35.1 41.2 35.5C40.9 36 41.2 36.6 41.6 36.8L43.6 37.8C43.7 38 43.8 38 44 38C44.4 38 44.7 37.8 44.9 37.5C45.1 37 44.9 36.3 44.5 36.1ZM38.5 25.1C38.2 24.9 37.7 25 37.5 25.2C35 27 32 28 29 28H25C22.8 28 21 29.8 21 32C21 34.2 22.8 36 25 36H25.3L25.8 39.4C26 40.9 27.3 42 28.7 42C29.6 42 30.4 41.6 31 41C31.6 40.4 31.8 39.5 31.7 38.6L31.4 36.2C33.6 36.6 35.7 37.5 37.5 38.8C37.7 38.9 37.9 39 38.1 39C38.3 39 38.4 39 38.6 38.9C38.9 38.7 39.1 38.4 39.1 38V26C39 25.6 38.8 25.3 38.5 25.1ZM29.5 39.7C29.3 39.9 29 40 28.7 40C28.2 40 27.8 39.6 27.7 39.2L27.3 36H29C29.1 36 29.2 36 29.3 36L29.7 38.9C29.7 39.2 29.7 39.4 29.5 39.7ZM37 36.1C34.6 34.7 31.8 34 29 34V30C31.8 30 34.6 29.2 37 27.8V36.1Z" fill="black"/>
<path d="M56.5 52.1L51.5 49.1C51.2 48.9 50.8 48.9 50.5 49.1C50.2 49.3 50 49.6 50 50V56C50 56.4 50.2 56.7 50.5 56.9C50.7 57 50.8 57 51 57C51.2 57 51.4 57 51.5 56.9L56.5 53.9C56.8 53.7 57 53.4 57 53C57 52.6 56.8 52.3 56.5 52.1Z" fill="black"/>
<path d="M12 48C9.8 48 8 49.8 8 52C8 54.2 9.8 56 12 56C14.2 56 16 54.2 16 52C16 49.8 14.2 48 12 48Z" fill="black"/>
<path d="M16.4 10C16.5 9.2 16.4 8.3 15.9 7.6C15.3 6.6 14.2 6 12.9 6C12.5 6 12.2 6.2 12 6.5L10.4 10H7C6.5 10 6 10.5 6 11V17C6 17.5 6.5 18 7 18H16C17.7 18 19 16.6 19 15V13C19 11.5 17.9 10.2 16.4 10ZM17 15C17 15.5 16.5 16 16 16H12V11.2L13.6 8.1C13.9 8.2 14.1 8.4 14.3 8.7C14.6 9.1 14.6 9.7 14.4 10.1L14.2 10.5C14 10.8 14.1 11.2 14.2 11.5C14.4 11.8 14.7 12 15 12H16C16.5 12 17 12.5 17 13V15Z" fill="black"/>
</svg>
